<?xml version="1.0" encoding="utf-8"?>
<!-- Generator: Adobe Illustrator 21.0.0, SVG Export Plug-In . SVG Version: 6.00 Build 0)  -->
<svg version="1.1" id="Layer_1" xmlns="http://www.w3.org/2000/svg" xmlns:xlink="http://www.w3.org/1999/xlink" x="0px" y="0px"
	 viewBox="0 0 55.4 48" style="enable-background:new 0 0 55.4 48;" xml:space="preserve">
<style type="text/css">
	.st0{fill:#FFFFFF;}
</style>
<path class="st0" d="M27.7,19.4c2.3,0,4.2,0.8,5.9,2.4c1.6,1.6,2.4,3.6,2.4,5.9s-0.8,4.2-2.4,5.9C31.9,35.2,30,36,27.7,36
	s-4.2-0.8-5.9-2.4c-1.6-1.6-2.4-3.6-2.4-5.9s0.8-4.2,2.4-5.9C23.4,20.2,25.4,19.4,27.7,19.4z M48,7.4c2,0,3.8,0.7,5.2,2.2
	s2.2,3.2,2.2,5.2v25.8c0,2-0.7,3.8-2.2,5.2C51.8,47.3,50,48,48,48H7.4c-2,0-3.8-0.7-5.2-2.2C0.7,44.4,0,42.7,0,40.6V14.8
	c0-2,0.7-3.8,2.2-5.2s3.2-2.2,5.2-2.2h6.5l1.5-3.9c0.4-0.9,1-1.8,2-2.4c1-0.7,2-1,3-1h14.8c1,0,2,0.3,3,1s1.6,1.5,2,2.4l1.5,3.9H48z
	 M27.7,40.6c3.6,0,6.6-1.3,9.1-3.8c2.5-2.5,3.8-5.6,3.8-9.1s-1.3-6.6-3.8-9.1c-2.5-2.5-5.6-3.8-9.1-3.8s-6.6,1.3-9.1,3.8
	s-3.8,5.6-3.8,9.1s1.3,6.6,3.8,9.1C21.1,39.4,24.1,40.6,27.7,40.6z"/>
</svg>
