<?xml version="1.0" encoding="utf-8"?>
<!-- Generator: Adobe Illustrator 21.0.0, SVG Export Plug-In . SVG Version: 6.00 Build 0)  -->
<svg version="1.1" id="Layer_1" xmlns="http://www.w3.org/2000/svg" xmlns:xlink="http://www.w3.org/1999/xlink" x="0px" y="0px"
	 viewBox="0 0 40 36.7" style="enable-background:new 0 0 40 36.7;" xml:space="preserve">
<style type="text/css">
	.st0{display:none;fill:none;}
</style>
<path class="st0" d="M-4-6h48v48H-4V-6z"/>
<path d="M29,0c-3.5,0-6.8,1.6-9,4.2C17.8,1.6,14.5,0,11,0C4.8,0,0,4.8,0,11c0,7.6,6.8,13.7,17.1,23.1l2.9,2.6l2.9-2.6
	C33.2,24.7,40,18.6,40,11C40,4.8,35.2,0,29,0z M20.2,31.1L20,31.3l-0.2-0.2C10.3,22.5,4,16.8,4,11c0-4,3-7,7-7c3.1,0,6.1,2,7.1,4.7
	h3.7C22.9,6,25.9,4,29,4c4,0,7,3,7,7C36,16.8,29.7,22.5,20.2,31.1z"/>
</svg>
