<?xml version="1.0" encoding="utf-8"?>
<!-- Generator: Adobe Illustrator 21.0.0, SVG Export Plug-In . SVG Version: 6.00 Build 0)  -->
<svg version="1.1" id="Layer_1" xmlns="http://www.w3.org/2000/svg" xmlns:xlink="http://www.w3.org/1999/xlink" x="0px" y="0px"
	 viewBox="0 0 35 35" style="enable-background:new 0 0 35 35;" xml:space="preserve">
<style type="text/css">
	.st0{fill:none;}
</style>
<path d="M25,22h-1.6l-0.6-0.5c2-2.3,3.1-5.2,3.1-8.5c0-7.2-5.8-13-13-13S0,5.8,0,13s5.8,13,13,13c3.2,0,6.2-1.2,8.5-3.1l0.5,0.6V25
	l10,10l3-3L25,22z M13,22c-5,0-9-4-9-9s4-9,9-9s9,4,9,9S18,22,13,22z"/>
<path class="st0" d="M-6-6h48v48H-6V-6z"/>
</svg>
