<?xml version="1.0" encoding="utf-8"?>
<!-- Generator: Adobe Illustrator 21.0.0, SVG Export Plug-In . SVG Version: 6.00 Build 0)  -->
<svg version="1.1" id="Capa_1" xmlns="http://www.w3.org/2000/svg" xmlns:xlink="http://www.w3.org/1999/xlink" x="0px" y="0px"
	 viewBox="0 0 48.2 38.2" style="enable-background:new 0 0 48.2 38.2;" xml:space="preserve">
<style type="text/css">
	.st0{fill:#1E201D;}
</style>
<path class="st0" d="M1,7.7L46.9,0l0,0h0c0.1,0,0.2,0,0.3,0l0,0h0c0,0,0,0,0.1,0l0,0h0h0l0,0l0,0l0,0h0l0,0l0,0c0,0,0,0,0,0h0l0,0
	l0,0c0,0,0,0,0.1,0l0,0c0,0,0.1,0.1,0.2,0.1h0v0l0,0l0,0h0l0,0l0,0l0,0l0,0l0,0l0,0v0l0,0l0,0l0,0l0,0l0,0h0v0l0,0v0h0v0l0,0l0,0
	l0,0v0h0v0l0,0l0,0l0,0v0l0,0l0,0l0,0v0v0h0v0l0,0v0v0h0v0v0l0,0l0,0v0v0l0,0v0v0l0,0h0v0v0v0l0,0v0l0,0v0l0,0l0,0l0,0l0,0v0v0v0
	c0,0,0,0.1,0,0.2l0,0c0,0,0,0.1,0,0.1l0,0l0,0l0,0c0,0,0,0,0,0l0,0v0l0,0l0,0v0v0v0h0v0c0,0,0,0,0,0.1l0,0v0c0,0.1-0.1,0.2-0.2,0.3
	l0,0l0,0L18.3,37.7c-0.2,0.2-0.5,0.4-0.8,0.4c-0.6,0.1-1.2-0.4-1.2-1l-1.6-17.4L0.5,9.8C0,9.4-0.1,8.7,0.2,8.2
	C0.4,7.9,0.7,7.8,1,7.7L1,7.7z M47.4,0C47.4,0.1,47.5,0.1,47.4,0"/>
</svg>
